# xmcd
#
# Track frame offsets: 
#        150
#        13531
#        25242
#        35769
#        46667
#        56679
#        66946
#        81778
#        95187
#        108828
#        121042
#        133108
#        145979
#        155804
#
# Disc length: 2241 seconds
#
# Revision: 3
# Processed by: cddbd v1.5.2PL0 Copyright (c) Steve Scherf et al.
# Submitted via: ExactAudioCopy v1.1
#
DISCID=bf08bf0e
DTITLE=Roy Hamilton - Roy Hamilton:  Eight Classic Albums - Disc 1
DYEAR=2014
DGENRE=Rhythm and Blues
TTITLE0=Unchained Melody (mono)
TTITLE1=Star Of Love (mono)
TTITLE2=Forgive This Fool (mono)
TTITLE3=You Wanted To Change Me (mono)
TTITLE4=Hurt (mono)
TTITLE5=One God (mono)
TTITLE6=You'll Never Walk Alone (mono)
TTITLE7=I'm Gonna Sit Right Down And Cry (mono)
TTITLE8=If I Loved You (mono)
TTITLE9=So Let There Be Love (mono)
TTITLE10=Ebb Tide (mono)
TTITLE11=Beware (mono)
TTITLE12=I Believe (mono)
TTITLE13=The House I Live In (mono)
EXTD=
EXTT0=
EXTT1=
EXTT2=
EXTT3=
EXTT4=
EXTT5=
EXTT6=
EXTT7=
EXTT8=
EXTT9=
EXTT10=
EXTT11=
EXTT12=
EXTT13=
PLAYORDER=
